<?xml version="1.0" encoding="UTF-8" standalone="no"?>
<svg
   xmlns:dc="http://purl.org/dc/elements/1.1/"
   xmlns:cc="http://creativecommons.org/ns#"
   xmlns:rdf="http://www.w3.org/1999/02/22-rdf-syntax-ns#"
   xmlns:svg="http://www.w3.org/2000/svg"
   xmlns="http://www.w3.org/2000/svg"
   xmlns:sodipodi="http://sodipodi.sourceforge.net/DTD/sodipodi-0.dtd"
   xmlns:inkscape="http://www.inkscape.org/namespaces/inkscape"
   inkscape:version="1.0beta1 (76ce730, 2019-10-19)"
   sodipodi:docname="calibration.svg"
   viewBox="0 0 325.38126 315.63873"
   height="315.63873"
   width="325.38126"
   xml:space="preserve"
   id="svg10"
   version="1.1"><metadata
     id="metadata16"><rdf:RDF><cc:Work
         rdf:about=""><dc:format>image/svg+xml</dc:format><dc:type
           rdf:resource="http://purl.org/dc/dcmitype/StillImage" /><dc:title></dc:title></cc:Work></rdf:RDF></metadata><defs
     id="defs14"><marker
       inkscape:stockid="Arrow1Send"
       orient="auto"
       refY="0.0"
       refX="0.0"
       id="marker4655"
       style="overflow:visible;"
       inkscape:isstock="true"><path
         id="path4653"
         d="M 0.0,0.0 L 5.0,-5.0 L -12.5,0.0 L 5.0,5.0 L 0.0,0.0 z "
         style="fill-rule:evenodd;stroke:#ff0000;stroke-width:1pt;stroke-opacity:1;fill:#ff0000;fill-opacity:1"
         transform="scale(0.2) rotate(180) translate(6,0)" /></marker><marker
       inkscape:collect="always"
       inkscape:isstock="true"
       style="overflow:visible;"
       id="marker4313"
       refX="0.0"
       refY="0.0"
       orient="auto"
       inkscape:stockid="Arrow1Send"><path
         transform="scale(0.2) rotate(180) translate(6,0)"
         style="fill-rule:evenodd;stroke:#ff0000;stroke-width:1pt;stroke-opacity:1;fill:#ff0000;fill-opacity:1"
         d="M 0.0,0.0 L 5.0,-5.0 L -12.5,0.0 L 5.0,5.0 L 0.0,0.0 z "
         id="path4311" /></marker><marker
       inkscape:stockid="Arrow1Send"
       orient="auto"
       refY="0.0"
       refX="0.0"
       id="marker3371"
       style="overflow:visible;"
       inkscape:isstock="true"><path
         id="path3369"
         d="M 0.0,0.0 L 5.0,-5.0 L -12.5,0.0 L 5.0,5.0 L 0.0,0.0 z "
         style="fill-rule:evenodd;stroke:#ff0000;stroke-width:1pt;stroke-opacity:1;fill:#ff0000;fill-opacity:1"
         transform="scale(0.2) rotate(180) translate(6,0)" /></marker><marker
       inkscape:stockid="Arrow1Send"
       orient="auto"
       refY="0.0"
       refX="0.0"
       id="marker2311"
       style="overflow:visible;"
       inkscape:isstock="true"><path
         id="path2309"
         d="M 0.0,0.0 L 5.0,-5.0 L -12.5,0.0 L 5.0,5.0 L 0.0,0.0 z "
         style="fill-rule:evenodd;stroke:#ff0000;stroke-width:1pt;stroke-opacity:1;fill:#ff0000;fill-opacity:1"
         transform="scale(0.2) rotate(180) translate(6,0)" /></marker><clipPath
       id="clipPath106"
       clipPathUnits="userSpaceOnUse"><path
         inkscape:connector-curvature="0"
         id="path104"
         d="m 51.41875,43.95 h 223.2 v 217.44 h -223.2 z" /></clipPath><clipPath
       id="clipPath116"
       clipPathUnits="userSpaceOnUse"><path
         inkscape:connector-curvature="0"
         id="path114"
         d="m 51.41875,43.95 h 223.2 v 217.44 h -223.2 z" /></clipPath><clipPath
       id="clipPath126"
       clipPathUnits="userSpaceOnUse"><path
         inkscape:connector-curvature="0"
         id="path124"
         d="m 51.41875,43.95 h 223.2 v 217.44 h -223.2 z" /></clipPath><clipPath
       id="clipPath168"
       clipPathUnits="userSpaceOnUse"><path
         inkscape:connector-curvature="0"
         id="path166"
         d="M -1021,-463 H 1794 V 1233 H -1021 Z" /></clipPath></defs><sodipodi:namedview
     inkscape:snap-bbox="true"
     fit-margin-bottom="0"
     fit-margin-right="0"
     fit-margin-left="0"
     fit-margin-top="0"
     inkscape:current-layer="g18"
     inkscape:window-maximized="0"
     inkscape:window-y="23"
     inkscape:window-x="2560"
     inkscape:cy="152.88659"
     inkscape:cx="203.93211"
     inkscape:zoom="1.4"
     showgrid="false"
     id="namedview12"
     inkscape:window-height="1395"
     inkscape:window-width="1707"
     inkscape:pageshadow="2"
     inkscape:pageopacity="0"
     guidetolerance="10"
     gridtolerance="10"
     objecttolerance="10"
     borderopacity="1"
     inkscape:document-rotation="0"
     bordercolor="#666666"
     pagecolor="#ffffff" /><g
     transform="matrix(1.3333333,0,0,-1.3333333,-41.610417,349.35332)"
     inkscape:label="calibration"
     inkscape:groupmode="layer"
     id="g18"><path
       inkscape:connector-curvature="0"
       id="path20"
       style="fill:#262626;fill-opacity:1;fill-rule:nonzero;stroke:#262626;stroke-width:1.25;stroke-linecap:butt;stroke-linejoin:round;stroke-miterlimit:10;stroke-dasharray:none;stroke-opacity:1"
       d="m 51.41875,43.95 v -6" /><path
       inkscape:connector-curvature="0"
       id="path26"
       style="fill:#262626;fill-opacity:1;fill-rule:nonzero;stroke:#262626;stroke-width:1.25;stroke-linecap:butt;stroke-linejoin:round;stroke-miterlimit:10;stroke-dasharray:none;stroke-opacity:1"
       d="m 96.05875,43.95 v -6" /><path
       inkscape:connector-curvature="0"
       id="path32"
       style="fill:#262626;fill-opacity:1;fill-rule:nonzero;stroke:#262626;stroke-width:1.25;stroke-linecap:butt;stroke-linejoin:round;stroke-miterlimit:10;stroke-dasharray:none;stroke-opacity:1"
       d="m 140.69875,43.95 v -6" /><path
       inkscape:connector-curvature="0"
       id="path38"
       style="fill:#262626;fill-opacity:1;fill-rule:nonzero;stroke:#262626;stroke-width:1.25;stroke-linecap:butt;stroke-linejoin:round;stroke-miterlimit:10;stroke-dasharray:none;stroke-opacity:1"
       d="m 185.33875,43.95 v -6" /><path
       inkscape:connector-curvature="0"
       id="path44"
       style="fill:#262626;fill-opacity:1;fill-rule:nonzero;stroke:#262626;stroke-width:1.25;stroke-linecap:butt;stroke-linejoin:round;stroke-miterlimit:10;stroke-dasharray:none;stroke-opacity:1"
       d="m 229.97875,43.95 v -6" /><path
       inkscape:connector-curvature="0"
       id="path50"
       style="fill:#262626;fill-opacity:1;fill-rule:nonzero;stroke:#262626;stroke-width:1.25;stroke-linecap:butt;stroke-linejoin:round;stroke-miterlimit:10;stroke-dasharray:none;stroke-opacity:1"
       d="m 274.61875,43.95 v -6" /><text
       y="-27.700001"
       x="78.073441"
       id="text58"
       style="font-variant:normal;font-weight:normal;font-size:12px;font-family:DejaVuSans;-inkscape-font-specification:DejaVuSans;writing-mode:lr-tb;fill:#262626;fill-opacity:1;fill-rule:nonzero;stroke:none"
       transform="scale(1,-1)"><tspan
         id="tspan56"
         sodipodi:role="line"
         y="-27.700001"
         x="78.073441 85.65744 92.761436 100.38144 107.76144 114.36143 119.06544 126.44544 134.06544 137.88144 145.50143 150.43344 157.81343 165.43344 168.76944 175.36943 180.07344 183.40944 190.75343 198.36143 202.17743 205.51344 213.12144 217.82544 225.20544 230.13744 237.24144 244.59744">Expected prediction interval</tspan></text><path
       inkscape:connector-curvature="0"
       id="path60"
       style="fill:#262626;fill-opacity:1;fill-rule:nonzero;stroke:#262626;stroke-width:1.25;stroke-linecap:butt;stroke-linejoin:round;stroke-miterlimit:10;stroke-dasharray:none;stroke-opacity:1"
       d="m 51.41875,43.95 h -6" /><path
       inkscape:connector-curvature="0"
       id="path66"
       style="fill:#262626;fill-opacity:1;fill-rule:nonzero;stroke:#262626;stroke-width:1.25;stroke-linecap:butt;stroke-linejoin:round;stroke-miterlimit:10;stroke-dasharray:none;stroke-opacity:1"
       d="m 51.41875,87.438 h -6" /><path
       inkscape:connector-curvature="0"
       id="path72"
       style="fill:#262626;fill-opacity:1;fill-rule:nonzero;stroke:#262626;stroke-width:1.25;stroke-linecap:butt;stroke-linejoin:round;stroke-miterlimit:10;stroke-dasharray:none;stroke-opacity:1"
       d="m 51.41875,130.926 h -6" /><path
       inkscape:connector-curvature="0"
       id="path78"
       style="fill:#262626;fill-opacity:1;fill-rule:nonzero;stroke:#262626;stroke-width:1.25;stroke-linecap:butt;stroke-linejoin:round;stroke-miterlimit:10;stroke-dasharray:none;stroke-opacity:1"
       d="m 51.41875,174.414 h -6" /><path
       inkscape:connector-curvature="0"
       id="path84"
       style="fill:#262626;fill-opacity:1;fill-rule:nonzero;stroke:#262626;stroke-width:1.25;stroke-linecap:butt;stroke-linejoin:round;stroke-miterlimit:10;stroke-dasharray:none;stroke-opacity:1"
       d="m 51.41875,217.902 h -6" /><path
       inkscape:connector-curvature="0"
       id="path90"
       style="fill:#262626;fill-opacity:1;fill-rule:nonzero;stroke:#262626;stroke-width:1.25;stroke-linecap:butt;stroke-linejoin:round;stroke-miterlimit:10;stroke-dasharray:none;stroke-opacity:1"
       d="m 51.41875,261.39 h -6" /><text
       y="40.325001"
       x="66.841873"
       id="text98"
       style="font-variant:normal;font-weight:normal;font-size:12px;font-family:DejaVuSans;-inkscape-font-specification:DejaVuSans;writing-mode:lr-tb;fill:#262626;fill-opacity:1;fill-rule:nonzero;stroke:none"
       transform="matrix(0,1,1,0,0,0)"><tspan
         id="tspan96"
         sodipodi:role="line"
         y="40.325001"
         x="66.841873 76.285873 83.905876 90.157875 97.537872 102.46987 109.57388 116.95387 124.57388 128.38988 136.00987 140.94188 148.32188 155.94188 159.27788 165.87788 170.58188 173.91788 181.26187 188.86987 192.68588 196.02187 203.62987 208.33388 215.71387 220.64587 227.74988 235.10588">Observed prediction interval</tspan></text><g
       id="g100"><g
         clip-path="url(#clipPath106)"
         id="g102"><path
           inkscape:connector-curvature="0"
           id="path108"
           style="fill:#4c72b0;fill-opacity:0.2;fill-rule:nonzero;stroke:#ffffff;stroke-width:1;stroke-linecap:butt;stroke-linejoin:round;stroke-miterlimit:10;stroke-dasharray:none;stroke-opacity:0.2"
           d="m 51.41875,43.95 v 0 l 2.254545,2.196364 2.254546,2.196363 2.254545,2.196364 2.254546,2.196364 2.254545,2.196363 2.254546,2.196364 2.254545,2.196363 2.254546,2.196364 2.254545,2.196364 2.254546,2.196363 2.254545,2.196364 2.254545,2.196364 2.254546,2.196363 2.254545,2.196364 2.254546,2.196364 2.254545,2.196363 2.254546,2.196364 2.254545,2.196363 2.254546,2.196364 2.254545,2.196364 2.254546,2.196363 2.254545,2.196364 2.25455,2.196364 2.25454,2.196363 2.25455,2.196364 2.25454,2.196359 2.25455,2.19637 2.25454,2.19636 2.25455,2.19637 2.25454,2.19636 2.25455,2.19636 2.25455,2.19637 2.25454,2.19636 2.25454,2.19636 2.25455,2.19637 2.25455,2.19636 2.25454,2.19637 2.25455,2.19636 2.25454,2.19636 2.25455,2.19636 2.25454,2.19637 2.25455,2.19636 2.25454,2.19637 2.25455,2.19636 2.25454,2.19636 2.25455,2.19637 2.25455,2.19636 2.25454,2.19636 2.25455,2.19637 2.25454,2.19636 2.25455,2.19636 2.25454,2.19637 2.25455,2.19636 2.25454,2.19637 2.25455,2.19636 2.25454,2.19636 2.25455,2.19637 2.25455,2.19636 2.25454,2.19636 2.25455,2.19637 2.25454,2.19636 2.25455,2.19636 2.25454,2.19637 2.25455,2.19636 2.25454,2.19637 2.25455,2.19636 2.25454,2.19636 2.25455,2.19637 2.25455,2.19636 2.25454,2.19636 2.25455,2.19637 2.25454,2.19636 2.25455,2.19636 2.25454,2.19637 2.25455,2.19636 2.25454,2.19637 2.25455,2.19636 2.25454,2.19636 2.25455,2.19637 2.25455,2.19636 2.25454,2.19636 2.25455,2.19637 2.25454,2.19636 2.25455,2.19636 2.25454,2.19637 2.25455,2.19636 2.25454,2.19637 2.25455,2.19636 2.25454,2.19636 2.25455,2.19637 2.25455,2.19636 2.25454,2.19636 2.25455,2.19637 2.25454,2.19636 2.25455,2.19636 2.25454,2.19637 2.25455,2.19636 2.25455,2.19637 2.25454,2.19636 v 0 0 l -2.25454,-18.23149 -2.25455,-3.38397 -2.25455,-2.57077 -2.25454,-2.49208 -2.25455,-2.01989 -2.25454,-2.04612 -2.25455,-1.8625 -2.25454,-1.52148 -2.25455,-1.86249 -2.25455,-1.44278 -2.25454,-1.70511 -2.25455,-1.7051 -2.25454,-1.25915 -2.25455,-1.54771 -2.25454,-1.15422 -2.25455,-1.57395 -2.25454,-1.81003 -2.25455,-1.60017 -2.25454,-1.60018 -2.25455,-1.25915 -2.25455,-1.60017 -2.25454,-1.36409 -2.25455,-1.15422 -2.25454,-1.41655 -2.25455,-1.46901 -2.25454,-1.44278 -2.25455,-1.31162 -2.25454,-1.25915 -2.25455,-1.65264 -2.25454,-1.65264 -2.25455,-1.52147 -2.25455,-1.20669 -2.25454,-1.49525 -2.25455,-1.31161 -2.25454,-1.36409 -2.25455,-1.46901 -2.25454,-1.54771 -2.25455,-1.6264 -2.25454,-1.33785 -2.25455,-1.46901 -2.25454,-1.75757 -2.25455,-1.88873 -2.25455,-1.41655 -2.25454,-1.94119 -2.25455,-1.88873 -2.25454,-1.46902 -2.25455,-1.5477 -2.25454,-1.8625 -2.25455,-1.46901 -2.25454,-1.81004 -2.25455,-2.28221 -2.25454,-1.52148 -2.25455,-1.18045 -2.25455,-1.91497 -2.25454,-1.91496 -2.25455,-1.83626 -2.25454,-1.81003 -2.25455,-1.91497 -2.25454,-1.86249 -2.25455,-1.81004 -2.25454,-1.7051 -2.25455,-1.8625 -2.25454,-1.88873 -2.25455,-1.99366 -2.25455,-1.99366 -2.25454,-1.83626 -2.25454,-2.20352 -2.25455,-1.25915 -2.25455,-2.07236 -2.25454,-2.54453 -2.25455,-1.99366 -2.25454,-2.49208 -2.25455,-2.22975 -2.25454,-2.6757 -2.25455,-2.33468 -2.25454,-2.28221 -2.25455,-2.12482 -2.254545,-2.85933 -2.254546,-2.43961 -2.254545,-2.33468 -2.254546,-2.308447 -2.254545,-3.016721 -2.254546,-2.675701 -2.254545,-2.544538 -2.254546,-2.78063 -2.254545,-3.069186 -2.254546,-2.859326 -2.254545,-3.095418 -2.254545,-2.990489 -2.254546,-3.016721 -2.254545,-3.12165 -2.254546,-2.754398 -2.254545,-3.016721 -2.254546,-3.305277 -2.254545,-3.331509 -2.254546,-3.593833 -2.254545,-3.410206 -2.254546,-3.803692 z" /></g></g><g
       id="g110"><g
         clip-path="url(#clipPath116)"
         id="g112"><path
           inkscape:connector-curvature="0"
           id="path118"
           style="fill:none;stroke:#4c72b0;stroke-width:1.5;stroke-linecap:butt;stroke-linejoin:round;stroke-miterlimit:10;stroke-dasharray:5.55, 2.4;stroke-dashoffset:0;stroke-opacity:1"
           d="m 51.41875,43.95 223.2,217.44" /></g></g><g
       id="g120"><g
         clip-path="url(#clipPath126)"
         id="g122"><path
           inkscape:connector-curvature="0"
           id="path128"
           style="fill:none;stroke:#dd8452;stroke-width:1.5;stroke-linecap:round;stroke-linejoin:round;stroke-miterlimit:10;stroke-dasharray:none;stroke-opacity:1"
           d="m 51.41875,43.95 2.254545,3.200347 2.254546,3.803692 2.254545,3.410206 2.254546,3.593833 2.254545,3.331509 2.254546,3.305277 2.254545,3.016721 2.254546,2.754398 2.254545,3.12165 2.254546,3.016721 2.254545,2.990489 2.254545,3.095418 2.254546,2.859326 2.254545,3.069186 2.254546,2.78063 2.254545,2.544538 2.254546,2.675701 2.254545,3.016721 2.254546,2.308447 2.254545,2.33468 2.254546,2.43961 2.254545,2.85933 2.25455,2.12482 2.25454,2.28221 2.25455,2.33468 2.25454,2.6757 2.25455,2.22975 2.25454,2.49208 2.25455,1.99366 2.25454,2.54453 2.25455,2.07236 2.25455,1.25915 2.25454,2.20352 2.25454,1.83626 2.25455,1.99366 2.25455,1.99366 2.25454,1.88873 2.25455,1.8625 2.25454,1.7051 2.25455,1.81004 2.25454,1.86249 2.25455,1.91497 2.25454,1.81003 2.25455,1.83626 2.25454,1.91496 2.25455,1.91497 2.25455,1.18045 2.25454,1.52148 2.25455,2.28221 2.25454,1.81004 2.25455,1.46901 2.25454,1.8625 2.25455,1.5477 2.25454,1.46902 2.25455,1.88873 2.25454,1.94119 2.25455,1.41655 2.25455,1.88873 2.25454,1.75757 2.25455,1.46901 2.25454,1.33785 2.25455,1.6264 2.25454,1.54771 2.25455,1.46901 2.25454,1.36409 2.25455,1.31161 2.25454,1.49525 2.25455,1.20669 2.25455,1.52147 2.25454,1.65264 2.25455,1.65264 2.25454,1.25915 2.25455,1.31162 2.25454,1.44278 2.25455,1.46901 2.25454,1.41655 2.25455,1.15422 2.25454,1.36409 2.25455,1.60017 2.25455,1.25915 2.25454,1.60018 2.25455,1.60017 2.25454,1.81003 2.25455,1.57395 2.25454,1.15422 2.25455,1.54771 2.25454,1.25915 2.25455,1.7051 2.25454,1.70511 2.25455,1.44278 2.25455,1.86249 2.25454,1.52148 2.25455,1.8625 2.25454,2.04612 2.25455,2.01989 2.25454,2.49208 2.25455,2.57077 2.25455,3.38397 2.25454,18.23149" /></g></g><g
       id="g130"><path
         inkscape:connector-curvature="0"
         id="path132"
         style="fill:none;stroke:#262626;stroke-width:1.25;stroke-linecap:square;stroke-linejoin:miter;stroke-miterlimit:10;stroke-dasharray:none;stroke-opacity:1"
         d="M 51.41875,43.95 V 261.39" /><path
         inkscape:connector-curvature="0"
         id="path134"
         style="fill:none;stroke:#262626;stroke-width:1.25;stroke-linecap:square;stroke-linejoin:miter;stroke-miterlimit:10;stroke-dasharray:none;stroke-opacity:1"
         d="M 274.61875,43.95 V 261.39" /><path
         inkscape:connector-curvature="0"
         id="path136"
         style="fill:none;stroke:#262626;stroke-width:1.25;stroke-linecap:square;stroke-linejoin:miter;stroke-miterlimit:10;stroke-dasharray:none;stroke-opacity:1"
         d="m 51.41875,43.95 h 223.2" /><path
         inkscape:connector-curvature="0"
         id="path138"
         style="fill:none;stroke:#262626;stroke-width:1.25;stroke-linecap:square;stroke-linejoin:miter;stroke-miterlimit:10;stroke-dasharray:none;stroke-opacity:1"
         d="m 51.41875,261.39 h 223.2" /><path
         inkscape:connector-curvature="0"
         id="path144"
         style="fill:#ffffff;fill-opacity:0.8;fill-rule:nonzero;stroke:#cccccc;stroke-width:1;stroke-linecap:butt;stroke-linejoin:miter;stroke-miterlimit:10;stroke-dasharray:none;stroke-opacity:0.8"
         d="m 59.81875,216.54 h 81.4 c 1.6,0 2.4,0.8 2.4,2.4 v 34.05 c 0,1.6 -0.8,2.4 -2.4,2.4 h -81.4 c -1.6,0 -2.4,-0.8 -2.4,-2.4 v -34.05 c 0,-1.6 0.8,-2.4 2.4,-2.4 z" /><path
         inkscape:connector-curvature="0"
         id="path146"
         style="fill:none;stroke:#4c72b0;stroke-width:1.5;stroke-linecap:butt;stroke-linejoin:round;stroke-miterlimit:10;stroke-dasharray:5.55, 2.4;stroke-dashoffset:0;stroke-opacity:1"
         d="m 62.21875,245.665 h 24" /><text
         id="text150"
         style="font-variant:normal;font-weight:normal;font-size:12px;font-family:DejaVuSans;-inkscape-font-specification:DejaVuSans;writing-mode:lr-tb;fill:#262626;fill-opacity:1;fill-rule:nonzero;stroke:none"
         transform="matrix(1,0,0,-1,95.81875,241.465)"><tspan
           id="tspan148"
           sodipodi:role="line"
           y="0"
           x="0 3.336 10.956 18.336 25.691999">ideal</tspan></text><path
         inkscape:connector-curvature="0"
         id="path152"
         style="fill:none;stroke:#dd8452;stroke-width:1.5;stroke-linecap:round;stroke-linejoin:round;stroke-miterlimit:10;stroke-dasharray:none;stroke-opacity:1"
         d="m 62.21875,228.04 h 24" /><g
         transform="translate(95.81875,223.84)"
         id="g154"><text
           id="text158"
           style="font-style:normal;font-variant:normal;font-weight:normal;font-stretch:normal;font-size:12px;font-family:DejaVuSans;-inkscape-font-specification:'DejaVuSans Normal';font-variant-ligatures:normal;font-variant-caps:normal;font-variant-numeric:normal;font-variant-east-asian:normal;writing-mode:lr-tb;fill:#262626;fill-opacity:1;fill-rule:nonzero;stroke:none"
           transform="matrix(1,0,0,-1,0,0.09375)"><tspan
             y="0"
             x="0"
             id="tspan172"
             sodipodi:role="line">actual</tspan></text></g></g><path
       inkscape:connector-curvature="0"
       id="path4309"
       d="m 201.28897,76.86365 -57.96819,46.1136"
       style="fill:none;stroke:#ff0000;stroke-width:3.75;stroke-linecap:butt;stroke-linejoin:miter;stroke-miterlimit:4;stroke-dasharray:1.875, 1.875;stroke-dashoffset:0;stroke-opacity:1;marker-end:url(#marker4313)" /><path
       style="fill:none;stroke:#ff0000;stroke-width:3.75;stroke-linecap:butt;stroke-linejoin:miter;stroke-miterlimit:4;stroke-dasharray:1.875, 1.875;stroke-dashoffset:0;stroke-opacity:1;marker-end:url(#marker4655)"
       d="M 64.355769,185.035 122.32396,138.9214"
       id="path4651"
       inkscape:connector-curvature="0" /><text
       transform="scale(1,-1)"
       style="font-style:normal;font-variant:normal;font-weight:normal;font-stretch:normal;font-size:12px;font-family:DejaVuSans;-inkscape-font-specification:'DejaVuSans Normal';font-variant-ligatures:normal;font-variant-caps:normal;font-variant-numeric:normal;font-variant-east-asian:normal;writing-mode:lr-tb;fill:#ff0000;fill-opacity:1;fill-rule:nonzero;stroke:none"
       id="text5137"
       x="155.75201"
       y="-121.45"><tspan
         y="-121.45"
         x="155.75201"
         id="tspan5139"
         sodipodi:role="line">more calibrated</tspan></text></g></svg>
